# xmcd
#
# Track frame offsets:
#	150
#	28898
#	58826
#	88345
#	119564
#	150650
#	178534
#	207128
#	232845
#	260281
#	287968
#	311880
#	335082
#
# Disc length: 4799 seconds
# Revision: 0
# Processed by: cddbd v1.5.2PL0 Copyright (c) Steve Scherf et al.
# Submitted via: dBpowerAMP V12.0
#
DISCID=c312bd0d
DTITLE=Franz Kafka - Der Prozess 5
DYEAR=2008
DGENRE=Unbekanntes Genre
TTITLE0=Advokat - Fabrikant - Maler
TTITLE1=Advokat - Fabrikant - Maler
TTITLE2=Advokat - Fabrikant - Maler
TTITLE3=Advokat - Fabrikant - Maler
TTITLE4=Advokat - Fabrikant - Maler
TTITLE5=Kaufmann Block - Kündigung des Advokaten
TTITLE6=Kaufmann Block - Kündigung des Advokaten
TTITLE7=Kaufmann Block - Kündigung des Advokaten
TTITLE8=Kaufmann Block - Kündigung des Advokaten
TTITLE9=Kaufmann Block - Kündigung des Advokaten
TTITLE10=Kaufmann Block - Kündigung des Advokaten
TTITLE11=Kaufmann Block - Kündigung des Advokaten
TTITLE12=Kaufmann Block - Kündigung des Advokaten
EXTD=
EXTT0=
EXTT1=
EXTT2=
EXTT3=
EXTT4=
EXTT5=
EXTT6=
EXTT7=
EXTT8=
EXTT9=
EXTT10=
EXTT11=
EXTT12=
PLAYORDER=
